<?xml version="1.0" standalone="no"?><!DOCTYPE svg PUBLIC "-//W3C//DTD SVG 1.1//EN"
        "http://www.w3.org/Graphics/SVG/1.1/DTD/svg11.dtd">
<svg viewBox="0 0 1024 1024" version="1.1" xmlns="http://www.w3.org/2000/svg"
>
    <path d="M980.965973 439.125333l-26.026666 126.208c-3.84 18.474667-17.621333 33.621333-36.096 38.997334-18.517333 5.376-38.186667 0.426667-51.797334-12.928l-66.176-65.493334-67.84 67.072-43.050666-42.197333 89.173333-88.362667a31.232 31.232 0 0 1 43.434667 0l75.946666 75.221334 19.498667-94.72-245.12-242.858667-57.642667 57.130667 81.834667 81.024a29.354667 29.354667 0 0 1 0 41.984L606.949973 469.333333l-43.093333-42.24 68.693333-68.053333-81.877333-80.810667a29.397333 29.397333 0 0 1 0-41.984L651.237973 136.746667a31.232 31.232 0 0 1 43.477334 0l278.186666 275.498666a30.378667 30.378667 0 0 1 8.106667 26.88zM465.211307 773.333333l-134.4 133.12-82.688-81.792 134.016-132.736-43.050667-42.24-155.306667 153.898667a29.397333 29.397333 0 0 0 0 41.984l125.44 124.202667a31.232 31.232 0 0 0 43.52 0l155.733334-154.24-43.264-42.24z"
          fill="#A5A9AA"/>
    <path d="M279.18464 146.133333a31.274667 31.274667 0 0 1 29.909333-7.594666l4.437334 1.621333L447.717973 200.832c21.930667 9.856 37.418667 29.781333 41.557334 52.906667l0.853333 6.4 14.848 175.189333 374.826667 367.061333c28.416 27.861333 31.872 71.466667 8.106666 103.296l-1.450666 1.962667-56.192 55.168-3.669334 2.986667a82.858667 82.858667 0 0 1-48.128 15.530666c-18.602667 0-37.034667-6.272-52.010666-18.602666l-5.461334-4.906667-374.4-367.018667-178.688-14.506666a73.813333 73.813333 0 0 1-57.514666-35.925334l-2.986667-5.717333L45.45664 403.072a29.696 29.696 0 0 1 3.029333-30.122667l3.072-3.498666 78.549334-76.8a30.677333 30.677333 0 0 1 39.253333-3.2l3.84 3.157333 76.330667 74.837333 27.605333-27.477333-76.373333-74.837333a29.184 29.184 0 0 1-3.2-38.442667l3.242666-3.754667L279.18464 146.133333z m27.434667 55.253334l-43.52 42.666666L360.677973 339.669333 249.87264 449.92 151.653973 353.621333 107.40864 396.842667 160.613973 509.866667a14.506667 14.506667 0 0 0 8.96 7.338666l3.114667 0.597334 199.850667 16.213333 389.546666 381.952c4.522667 4.352 10.325333 6.698667 16.426667 6.698667a30.037333 30.037333 0 0 0 9.813333-1.749334l1.152-0.512 1.834667-1.536 50.218667-49.237333 1.408-2.218667a19.242667 19.242667 0 0 0-1.664-20.224l-2.474667-2.901333-390.4-382.293333-16.64-196.778667a12.970667 12.970667 0 0 0-5.546667-9.386667l-2.645333-1.536-116.949333-52.906666z"
          fill="#08A383"/>
</svg>